# xmcd
#
# Track frame offsets:
#  150
#  11840
#  22045
#  32300
#  42125
#  52050
#  63320
#  78075
#  90350
#  99840
#  110950
#  123025
#
# Disc length: 1876 seconds
#
# Revision: 4
# Processed by: cddbd v1.5.1PL2 Copyright (c) Steve Scherf et al.
# Submitted via: Collectorz.com_Music_Collector 6.10
#
DISCID=8807520c
DTITLE=Mandarim Records - Original Music Collection [CD3)
DYEAR=1996
DGENRE=Other
TTITLE0=Johnny Cash - I Walk The Line
TTITLE1=Roy Orbison - Domino
TTITLE2=Glen Campbell - Walk Right In [instrumental]
TTITLE3=Johnny Cash - Get Rhythm
TTITLE4=Roger Miller - My Pillow
TTITLE5=Johnny Horton - All For The Love Of A Girl
TTITLE6=Cowboy Copas - Satisfied Mind
TTITLE7=Faron Young - Country Girl
TTITLE8=Billy Walker - Love Boat
TTITLE9=Johnny Cash - Big River
TTITLE10=Gene Autry - South Of The Border
TTITLE11=Bill Anderson - A Place In The Country
EXTD=
EXTT0=
EXTT1=
EXTT2=
EXTT3=
EXTT4=
EXTT5=
EXTT6=
EXTT7=
EXTT8=
EXTT9=
EXTT10=
EXTT11=
PLAYORDER=
